<?xml version="1.0" encoding="UTF-8"?>
<svg width="192px" height="192px" viewBox="0 0 192 192" version="1.1" xmlns="http://www.w3.org/2000/svg" xmlns:xlink="http://www.w3.org/1999/xlink">
    <!-- Generator: Sketch 50.2 (55047) - http://www.bohemiancoding.com/sketch -->
    <title>webview_404_refresh_icon</title>
    <desc>Created with Sketch.</desc>
    <defs></defs>
    <g id="webview_404_refresh_icon" stroke="none" stroke-width="1" fill="none" fill-rule="evenodd" opacity="0.300000012">
        <g id="common_icons_miniprogram" fill="#000000">
            <path d="M50.745166,141.254834 C39.163444,129.673112 32,113.673112 32,96 C32,60.653776 60.653776,32 96,32 L96,41.6 C65.9557096,41.6 41.6,65.9557096 41.6,96 C41.6,110.632722 47.3910253,124.324243 57.5333911,134.466609 M96,150.4 C126.04429,150.4 150.4,126.04429 150.4,96 C150.4,81.3672785 144.608975,67.6757569 134.466609,57.5333911 L141.254834,50.745166 C152.836556,62.326888 160,78.326888 160,96 C160,131.346224 131.346224,160 96,160" id="Oval" fill-rule="nonzero"></path>
            <g id="Group-6" transform="translate(64.000000, 16.000000)">
                <path d="M16.2274174,16.2274174 L16.2274174,38.627417 L6.627417,38.627417 L6.627417,16.2274174 L6.627417,10.627417 C6.627417,8.418278 8.418278,6.627417 10.627417,6.627417 L38.627417,6.627417 L38.627417,16.2274174 L16.2274174,16.2274174 Z" id="Combined-Shape" transform="translate(22.627417, 22.627417) scale(-1, 1) rotate(-45.000000) translate(-22.627417, -22.627417) "></path>
                <path d="M34.9474186,130.947419 L34.9474186,153.347418 L25.3474182,153.347418 L25.3474182,130.947419 L25.3474182,125.347418 C25.3474182,123.138279 27.1382792,121.347418 29.3474182,121.347418 L57.3474182,121.347418 L57.3474182,130.947419 L34.9474186,130.947419 Z" id="Combined-Shape" transform="translate(41.347418, 137.347418) rotate(-45.000000) translate(-41.347418, -137.347418) "></path>
            </g>
        </g>
    </g>
</svg>